<?xml version="1.0" encoding="UTF-8"?>
<svg width="17px" height="14px" viewBox="0 0 17 14" version="1.1" xmlns="http://www.w3.org/2000/svg" xmlns:xlink="http://www.w3.org/1999/xlink">
    <!-- Generator: Sketch 53 (72520) - https://sketchapp.com -->
    <title>Shape</title>
    <desc>Created with Sketch.</desc>
    <g id="v2" stroke="none" stroke-width="1" fill="none" fill-rule="evenodd">
        <g id="1280" transform="translate(-1058.000000, -75.000000)" fill="#222222" fill-rule="nonzero">
            <g id="Group-5" transform="translate(82.000000, 55.000000)">
                <g id="Group" transform="translate(976.000000, 19.000000)">
                    <path d="M16.9337172,5.00567835 C16.866376,4.9076074 16.757373,4.8492849 16.6408278,4.8492849 L3.53442727,4.8492849 L2.56579092,1.27136678 C2.52251295,1.11088704 2.38100656,1 2.21992632,1 L0.359153264,1 C0.160900662,1 0,1.16642344 0,1.37148088 C0,1.57653833 0.160900662,1.74296176 0.359153264,1.74296176 L1.94768815,1.74296176 L4.21071287,10.1025818 C3.38035052,10.1161408 2.70855434,10.818054 2.70855434,11.6800754 C2.70855434,12.5506408 3.39328004,13.2588691 4.23495571,13.2588691 L4.69521062,13.2588691 C4.63577075,13.4041181 4.60290823,13.5636692 4.60290823,13.7310213 C4.60290823,14.4009871 5.12996564,14.9461353 5.77751898,14.9461353 C6.42525189,14.9461353 6.95230931,14.4009871 6.95230931,13.7310213 C6.95230931,13.5636692 6.91926721,13.4041181 6.86000692,13.2588691 L10.6630808,13.2588691 C10.5887361,13.4182344 10.5458173,13.5961737 10.5458173,13.784886 C10.5458173,14.4548518 11.0728747,15 11.720428,15 C12.3679814,15 12.8950388,14.4548518 12.8950388,13.784886 C12.8950388,13.5963595 12.85212,13.4184201 12.7777752,13.2588691 L13.408628,13.2588691 C13.6068806,13.2588691 13.7677812,13.0924457 13.7677812,12.8873882 C13.7677812,12.6823308 13.6068806,12.5159073 13.408628,12.5159073 L4.23477613,12.5159073 C3.78924651,12.5159073 3.42668129,12.1408974 3.42668129,11.6800754 C3.42668129,11.2192533 3.78924651,10.8442434 4.23477613,10.8442434 L4.68299941,10.8442434 C4.68317898,10.8442434 4.68335856,10.8442434 4.68353814,10.8442434 C4.68371771,10.8442434 4.68389729,10.8442434 4.68425644,10.8442434 L14.8730754,10.8442434 C15.0530112,10.8442434 15.2006232,10.7067954 15.2268414,10.5282989 L16.9798684,5.34335447 C17.0182978,5.22968132 17.0010585,5.10393504 16.9337172,5.00567835 Z M11.7202485,14.2566668 C11.4686616,14.2566668 11.2639442,14.0449227 11.2639442,13.7845146 C11.2639442,13.5241065 11.4686616,13.3123624 11.7202485,13.3123624 C11.9718353,13.3123624 12.1765527,13.5241065 12.1765527,13.7845146 C12.1765527,14.0449227 11.9718353,14.2566668 11.7202485,14.2566668 Z M6.2338232,13.7306498 C6.2338232,13.9908722 6.02892626,14.202802 5.7773394,14.202802 C5.52575254,14.202802 5.32103518,13.9910579 5.32103518,13.7306498 C5.32103518,13.4702417 5.52575254,13.2584976 5.7773394,13.2584976 C6.02892626,13.2584976 6.2338232,13.4704275 6.2338232,13.7306498 Z M15.8557187,6.4173057 L13.3842055,6.4173057 L13.4975184,5.59206092 L16.1347808,5.59206092 L15.8557187,6.4173057 Z M15.2381547,8.2438772 L13.133337,8.2438772 L13.282206,7.16045321 L15.6046706,7.16045321 L15.2381547,8.2438772 Z M14.6103548,10.1012816 L12.8781586,10.1012816 L13.0311579,8.98683896 L14.9872861,8.98683896 L14.6103548,10.1012816 Z M10.3125472,10.1012816 L10.3125472,8.98683896 L12.3056683,8.98683896 L12.1524894,10.1012816 L10.3125472,10.1012816 Z M7.75429854,10.1012816 L7.60111968,8.98683896 L9.59424071,8.98683896 L9.59424071,10.1012816 L7.75429854,10.1012816 Z M4.95613546,10.1012816 L4.65444672,8.98683896 L6.87563008,8.98683896 L7.02862937,10.1012816 L4.95613546,10.1012816 Z M10.3125472,6.4173057 L10.3125472,5.59206092 L12.7718492,5.59206092 L12.6585364,6.4173057 L10.3125472,6.4173057 Z M12.5565368,7.16026747 L12.4076678,8.24369146 L10.3125472,8.24369146 L10.3125472,7.16026747 L12.5565368,7.16026747 Z M9.59424071,6.4173057 L7.24807202,6.4173057 L7.13475916,5.59206092 L9.59406114,5.59206092 L9.59406114,6.4173057 L9.59424071,6.4173057 Z M9.59424071,7.16026747 L9.59424071,8.24369146 L7.49912015,8.24369146 L7.35025112,7.16026747 L9.59424071,7.16026747 Z M6.77345098,8.2438772 L4.4533209,8.2438772 L4.15989268,7.16045321 L6.62458195,7.16045321 L6.77345098,8.2438772 Z M6.40908999,5.59224666 L6.52240285,6.41749144 L3.95894643,6.41749144 L3.7355531,5.59224666 L6.40908999,5.59224666 Z" id="Shape"></path>
                </g>
            </g>
        </g>
    </g>
</svg>